:version 1.10
:name ASF
:units
  mass 1
  length 1
  angle deg
:documentation
  ASF file generated by Kaydara
:root
  axis xyz
  order  tx ty tz rx ry rz
  position 0 0 0
  orientation 0 0 0
:bonedata
  begin
    id 1
    name RightUpLegDummy
    direction -1 2.30186e-007 8.31532e-007
    length 4.46685
    axis 0 0 0 xyz
  end
  begin
    id 2
    name RightUpLeg
    direction -2.30187e-007 -1 1.24343e-010
    length 16.4045
    axis -3.49089 -0.000906625 0.000286804 xyz
    dof rx ry rz
  end
  begin
    id 3
    name RightLeg
    direction -2.30181e-007 -1 -4.17157e-009
    length 17.5097
    axis 3.68512 0.0193738 -0.131023 xyz
    dof rx ry rz
  end
  begin
    id 4
    name RightFoot
    direction 8.31421e-007 -4.51202e-011 1
    length 6.49508
    axis 4.81691e-005 -0.120479 -0.188788 xyz
    dof rx ry rz
  end
  begin
    id 5
    name RightToes
    direction 0.00124746 -0.014064 0.9999
    length 3.85082
    axis 0.000481921 0.542163 -0.142578 xyz
    dof rx ry rz
  end
  begin
    id 6
    name SpineDummy
    direction 0.0717043 0.9409 -0.331007
    length 10.0032
    axis 0 0 0 xyz
  end
  begin
    id 7
    name Spine
    direction 2.30186e-007 1 4.58806e-011
    length 9.84055
    axis -0.001389 0.000121418 2.40972e-006 xyz
    dof rx ry rz
  end
  begin
    id 8
    name Spine1
    direction 0 0 0
    length 0
    axis -0.001389 0.000121451 1.30017e-006 xyz
    dof rx ry rz
  end
  begin
    id 9
    name HEadDummy
    direction -0.00347485 0.950688 -0.310128
    length 8.00997
    axis -0.001389 0.000121451 1.30017e-006 xyz
  end
  begin
    id 10
    name HEad
    direction -0.0222688 0.980941 0.193023
    length 5.12695
    axis -0.001389 0.000121451 1.30017e-006 xyz
    dof rx ry rz
  end
  begin
    id 11
    name LeftShoulder1Dummy
    direction 0.988871 0.146793 -0.0242004
    length 3.5792
    axis -0.001389 0.000121451 1.30017e-006 xyz
  end
  begin
    id 12
    name LeftShoulder1
    direction 0.993832 0.108932 0.020779
    length 4.16823
    axis -0.001389 0.000121451 1.30017e-006 xyz
    dof rx ry rz
  end
  begin
    id 13
    name LeftArm
    direction 1 3.44807e-006 -8.31404e-007
    length 9.91437
    axis -23.1894 0.134784 0.967509 xyz
    dof rx ry rz
  end
  begin
    id 14
    name LeftForeArm
    direction 1 3.44842e-006 -8.31581e-007
    length 9.08575
    axis -9.91835 -0.06569 -0.177793 xyz
    dof rx ry rz
  end
  begin
    id 15
    name LeftHand
    direction 0.992938 -0.0411636 0.11126
    length 5.32135
    axis -0.00960232 -0.00340091 0.185173 xyz
    dof rx ry rz
  end
  begin
    id 16
    name RightShoulderDummy
    direction -0.988871 0.146793 -0.0241962
    length 3.5792
    axis -0.001389 0.000121451 1.30017e-006 xyz
  end
  begin
    id 17
    name RightShoulder
    direction -0.993832 0.108933 0.0207785
    length 4.16823
    axis 0.215806 0.000203643 -0.0068026 xyz
    dof rx ry rz
  end
  begin
    id 18
    name RightArm
    direction -1 3.90912e-006 8.31284e-007
    length 9.91437
    axis -23.2009 -0.134239 -0.964101 xyz
    dof rx ry rz
  end
  begin
    id 19
    name RightForeArm
    direction -1 3.90882e-006 8.31502e-007
    length 9.08575
    axis -9.92322 0.0658061 0.178867 xyz
    dof rx ry rz
  end
  begin
    id 20
    name RightHand
    direction -0.992843 -0.0414603 0.112003
    length 5.28593
    axis -0.00960638 0.00330671 -0.185228 xyz
    dof rx ry rz
  end
  begin
    id 21
    name LeftUpLegDummy
    direction 1 -2.30186e-007 -8.31532e-007
    length 4.46685
    axis 0 0 0 xyz
  end
  begin
    id 22
    name LeftUpLeg
    direction -2.30187e-007 -1 6.00931e-010
    length 16.4045
    axis -3.48766 0.00143442 -0.000524262 xyz
    dof rx ry rz
  end
  begin
    id 23
    name LeftLeg
    direction -2.30187e-007 -1 1.6669e-009
    length 17.5097
    axis 3.68178 -0.00654042 -0.000285133 xyz
    dof rx ry rz
  end
  begin
    id 24
    name LeftFoot
    direction 8.31532e-007 -4.54478e-011 1
    length 6.49508
    axis 1.87233e-006 4.66016e-005 -8.6538e-006 xyz
    dof rx ry rz
  end
  begin
    id 25
    name LeftToes
    direction 0.00818058 -0.00485161 0.999955
    length 3.85048
    axis 1.06247e-005 4.65869e-005 -8.65513e-006 xyz
    dof rx ry rz
  end
:hierarchy
  begin
    root RightUpLegDummy SpineDummy LeftUpLegDummy
    RightUpLegDummy RightUpLeg
    RightUpLeg RightLeg
    RightLeg RightFoot
    RightFoot RightToes
    SpineDummy Spine
    Spine Spine1
    Spine1 HEadDummy LeftShoulder1Dummy RightShoulderDummy
    HEadDummy HEad
    LeftShoulder1Dummy LeftShoulder1
    LeftShoulder1 LeftArm
    LeftArm LeftForeArm
    LeftForeArm LeftHand
    RightShoulderDummy RightShoulder
    RightShoulder RightArm
    RightArm RightForeArm
    RightForeArm RightHand
    LeftUpLegDummy LeftUpLeg
    LeftUpLeg LeftLeg
    LeftLeg LeftFoot
    LeftFoot LeftToes
  end

:SAMPLES-PER-SECOND 30
:FULLY-SPECIFIED
:DEGREES
161
root  5.6363 30.2229 6.42168 173.814 -51.0871 -166.857
RightUpLeg  -22.1704 -1.39048 1.93791
RightLeg  46.1288 0.861263 0.751994
RightFoot  -14.1185 -0.0649912 -0.14728
RightToes  -45.8927 -0.267184 -0.345932
Spine  8.46175 0.331664 3.57794
Spine1  16.2994 1.80532 3.09684
HEad  37.3304 -0.114336 6.07949
LeftShoulder1  0 -2.42657e-020 -4.95415e-022
LeftArm  -6.42547 4.13947 -84.1435
LeftForeArm  -148.877 -49.0317 -11.1387
LeftHand  10.3209 -25.9748 -43.1479
RightShoulder  0 2.42657e-020 1.07489e-018
RightArm  -16.5062 11.7869 77.6806
RightForeArm  61.77 33.0815 6.54164
RightHand  -4.94863 26.0756 -20.7755
LeftUpLeg  -33.2799 -1.87412 4.86062
LeftLeg  87.9113 0.404423 3.92756
LeftFoot  -7.00974 -0.00917067 -0.149739
LeftToes  -4.45589 1.18758e-006 1.19596e-007
162
root  3.95495 30.87 5.64447 176.234 -53.0094 -169.937
RightUpLeg  -15.8295 -2.19774 -0.801745
RightLeg  40.2591 0.308839 0.206058
RightFoot  -13.0994 -0.0357268 0.0663827
RightToes  -47.5333 -0.281283 -0.353604
Spine  8.62203 2.79432 2.86308
Spine1  16.2645 7.7235 0.940902
HEad  40.6554 -7.83593 8.97987
LeftShoulder1  0 -2.42657e-020 -4.95415e-022
LeftArm  -2.7005 3.96144 -84.7373
LeftForeArm  -147.014 -51.505 -12.2059
LeftHand  10.1303 -25.5644 -43.0597
RightShoulder  0 2.42657e-020 1.07489e-018
RightArm  -33.4066 15.8805 77.116
RightForeArm  65.9807 18.9661 3.40969
RightHand  -1.74838 25.9305 -7.21524
LeftUpLeg  -36.5857 -0.430148 3.99664
LeftLeg  79.5433 0.478686 1.87219
LeftFoot  -9.21497 0.00366186 0.0454294
LeftToes  -4.43179 1.18758e-006 1.19596e-007
163
root  2.22231 31.5765 5.00803 -179.956 -54.874 -173.769
RightUpLeg  -10.4986 -1.97545 -3.83603
RightLeg  34.5805 -0.759675 -0.468715
RightFoot  -9.6608 -0.00538506 0.313848
RightToes  -50.3976 -0.306403 -0.36602
Spine  8.06274 4.31412 1.7916
Spine1  14.7111 11.1359 -0.548143
HEad  42.7957 -15.4888 12.1246
LeftShoulder1  0 -2.42657e-020 -4.95415e-022
LeftArm  -0.248541 4.80752 -84.2937
LeftForeArm  -143.543 -52.5858 -12.7128
LeftHand  9.58785 -25.1096 -41.6514
RightShoulder  0 2.42657e-020 1.07489e-018
RightArm  -56.6329 16.6185 73.7164
RightForeArm  75.7781 6.26849 1.02958
RightHand  -0.0153702 21.1874 0.287918
LeftUpLeg  -38.358 0.429942 2.38062
LeftLeg  66.7133 0.628749 1.22175
LeftFoot  -9.55644 -0.00221769 -0.0265397
LeftToes  -5.52112 1.18758e-006 1.19596e-007
164
root  0.423869 32.2127 4.48996 -176.102 -57.3658 -177.256
RightUpLeg  -6.39335 -2.11165 -6.44032
RightLeg  30.8626 -2.24806 -1.16331
RightFoot  -4.47912 0.000369889 0.387067
RightToes  -54.9728 -0.347724 -0.383204
Spine  7.15352 4.61527 0.797505
Spine1  12.7611 11.4847 -1.31226
HEad  42.9192 -21.8726 15.0028
LeftShoulder1  0 -2.42657e-020 -4.95415e-022
LeftArm  0.524613 6.12519 -83.3606
LeftForeArm  -142.235 -52.8323 -12.8328
LeftHand  9.39661 -25.2478 -40.6814
RightShoulder  0 2.42657e-020 1.07489e-018
RightArm  -60.8226 10.6467 71.668
RightForeArm  66.064 3.90812 0.638172
RightHand  0.145866 16.9681 1.34837
LeftUpLeg  -38.3565 0.354707 0.386932
LeftLeg  50.9264 1.59364 1.71524
LeftFoot  -9.83476 -0.0342491 -0.398086
LeftToes  -5.06229 1.18758e-006 1.19596e-007
165
root  -1.4644 32.6204 3.95779 -173.014 -60.5366 -179.869
RightUpLeg  -2.99951 -0.151181 -7.38042
RightLeg  29.5631 -6.00038 -2.91017
RightFoot  0.866658 0.00234919 0.0668861
RightToes  -58.2375 -0.377983 -0.393422
Spine  6.61328 4.00894 0.18729
Spine1  11.8643 9.86599 -1.61092
HEad  40.5031 -25.9629 17.6201
LeftShoulder1  0 -2.42657e-020 -4.95415e-022
LeftArm  -1.17346 7.00484 -82.9233
LeftForeArm  -142.893 -52.3989 -12.6245
LeftHand  9.65178 -25.4871 -41.3218
RightShoulder  0 2.42657e-020 1.07489e-018
RightArm  -65.7958 6.09827 71.4102
RightForeArm  64.357 3.36665 0.547041
RightHand  -0.214489 16.8435 -1.07904
LeftUpLeg  -36.9664 0.3913 -1.85946
LeftLeg  35.9948 0.0606983 0.0337483
LeftFoot  -8.65098 -0.007701 -0.101823
LeftToes  -9.89899 1.18758e-006 1.19596e-007
166
root  -3.35678 32.6819 3.376 -171.619 -63.8684 178.974
RightUpLeg  -1.73934 3.36854 -6.20614
RightLeg  33.7557 -10.7415 -6.16793
RightFoot  5.08462 0.0607217 -0.989829
RightToes  -58.0418 -0.376153 -0.392858
Spine  6.26579 2.87815 0.0636255
Spine1  11.477 7.1719 -1.22233
HEad  38.5061 -27.9377 18.3092
LeftShoulder1  0 -2.42657e-020 -4.95415e-022
LeftArm  -3.9356 7.91762 -83.0328
LeftForeArm  -145.991 -51.1015 -12.0247
LeftHand  10.3093 -25.6042 -43.685
RightShoulder  0 2.42657e-020 1.07489e-018
RightArm  -67.6117 1.96249 72.5208
RightForeArm  60.5233 5.52287 0.935883
RightHand  -0.60035 18.4378 -3.32883
LeftUpLeg  -35.6305 1.30827 -4.11955
LeftLeg  28.5572 -4.74796 -2.20136
LeftFoot  -5.85148 0.0232574 0.455049
LeftToes  -19.2483 1.18758e-006 1.19596e-007
167
root  -5.30799 32.4217 2.91581 -168.303 -66.66 175.118
RightUpLeg  -3.28332 4.1534 -6.83586
RightLeg  43.573 -10.8152 -8.93566
RightFoot  8.725 0.186217 -2.06291
RightToes  -54.3943 -0.342426 -0.381214
Spine  6.07587 1.37693 -0.344061
Spine1  11.358 3.72661 -1.4684
HEad  37.3501 -28.4947 17.7864
LeftShoulder1  0 -2.42657e-020 -4.95415e-022
LeftArm  -6.45814 8.4761 -82.4649
LeftForeArm  -149.934 -49.0115 -11.1299
LeftHand  10.8869 -25.9392 -45.3357
RightShoulder  0 2.42657e-020 1.07489e-018
RightArm  -66.0963 -2.63757 75.1529
RightForeArm  47.5057 10.9449 1.93267
RightHand  -0.553518 20.5907 -2.67733
LeftUpLeg  -33.8187 -0.311286 -6.76168
LeftLeg  29.2858 -7.38483 -3.52818
LeftFoot  -2.72152 0.00844825 0.355643
LeftToes  -15.8218 1.18758e-006 1.19596e-007
168
root  -7.22018 31.8712 2.38549 -167.018 -68.6595 172.212
RightUpLeg  -5.83166 3.65252 -7.49338
RightLeg  55.637 -7.9877 -10.1266
RightFoot  13.5019 0.399938 -2.99991
RightToes  -43.3702 -0.24595 -0.333358
Spine  6.31375 0.0428959 -0.727682
Spine1  12.0603 0.65542 -1.71324
HEad  35.8143 -28.4929 17.1233
LeftShoulder1  0 -2.42657e-020 -4.95415e-022
LeftArm  -7.58656 8.06431 -80.962
LeftForeArm  -151.812 -46.6976 -10.2269
LeftHand  11.0089 -26.1936 -45.3807
RightShoulder  0 2.42657e-020 1.07489e-018
RightArm  -60.3986 -7.97134 78.2298
RightForeArm  32.3011 18.6807 3.40998
RightHand  -0.28468 19.6486 -1.27426
LeftUpLeg  -32.2359 -2.72296 -7.92262
LeftLeg  34.6021 -7.55951 -4.50984
LeftFoot  -1.28426 0.00207837 0.185431
LeftToes  -18.3951 1.18758e-006 1.19596e-007
169
root  -9.11958 31.2992 1.78943 -165.356 -69.7277 168.392
RightUpLeg  -9.06539 4.29076 -8.30653
RightLeg  66.4624 -2.75346 -5.46538
RightFoot  16.6133 0.317143 -1.79429
RightToes  -36.5947 -0.191868 -0.295089
Spine  6.81733 -1.28815 -1.31826
Spine1  13.281 -2.35879 -2.44122
HEad  34.3577 -27.2808 16.4872
LeftShoulder1  0 -2.42657e-020 -4.95415e-022
LeftArm  -8.23267 7.23057 -78.7375
LeftForeArm  -151.551 -43.9197 -9.24308
LeftHand  10.8354 -26.0332 -44.9922
RightShoulder  0 2.42657e-020 1.07489e-018
RightArm  -51.9754 -13.589 80.6921
RightForeArm  18.7202 28.2024 5.42187
RightHand  -0.25677 16.8382 -1.36522
LeftUpLeg  -31.0236 -1.87322 -9.92779
LeftLeg  42.0102 -8.02604 -6.30445
LeftFoot  -4.7851 0.035949 0.860363
LeftToes  -7.46932 1.18758e-006 1.19596e-007
170
root  -10.974 30.779 1.15501 -163.862 -69.4236 165.744
RightUpLeg  -13.7261 5.42259 -8.88926
RightLeg  74.8679 0.874565 2.32308
RightFoot  9.93444 -0.000528048 0.383598
RightToes  -40.264 -0.220596 -0.316609
Spine  7.22096 -2.08155 -1.81362
Spine1  14.1662 -3.97232 -3.40493
HEad  33.5769 -25.2844 15.9462
LeftShoulder1  0 -2.42657e-020 -4.95415e-022
LeftArm  -7.71426 6.09701 -76.3021
LeftForeArm  -150.395 -41.2871 -8.39416
LeftHand  10.6575 -25.5775 -45.0573
RightShoulder  0 2.42657e-020 1.07489e-018
RightArm  -50.2776 -20.3888 84.7999
RightForeArm  11.7272 43.4938 9.63708
RightHand  -0.101734 17.4933 -0.291326
LeftUpLeg  -29.1096 -0.633357 -11.3454
LeftLeg  46.8999 -7.64206 -7.12933
LeftFoot  -10.4612 0.175949 1.9218
LeftToes  -5.73976 1.18758e-006 1.19596e-007
171
root  -12.7858 30.627 0.607034 -161.781 -69.2604 163.1
RightUpLeg  -18.7593 4.98532 -9.39032
RightLeg  78.7051 0.80523 2.67341
RightFoot  5.7035 0.0065572 0.245884
RightToes  -41.4848 -0.230452 -0.323355
Spine  7.21169 -3.26406 -2.06348
Spine1  14.2611 -6.29969 -4.13884
HEad  33.6928 -21.7567 14.3234
LeftShoulder1  0 -2.42657e-020 -4.95415e-022
LeftArm  -8.54515 6.59108 -74.7051
LeftForeArm  -148.415 -38.9848 -7.70785
LeftHand  10.5928 -25.4502 -45.0187
RightShoulder  0 2.42657e-020 1.07489e-018
RightArm  -50.0015 -27.1906 89.371
RightForeArm  7.97911 58.3502 16.6645
RightHand  -0.115118 17.1868 -0.3919
LeftUpLeg  -25.661 -1.76642 -12.6306
LeftLeg  47.6292 -6.55128 -6.28272
LeftFoot  -14.1596 0.279283 2.24839
LeftToes  -4.92879 1.18758e-006 1.19596e-007
172
root  -14.5485 30.9585 0.00932543 -162.028 -67.9061 163.307
RightUpLeg  -23.67 5.53379 -8.46372
RightLeg  77.2814 -1.01932 -3.75123
RightFoot  0.891141 0.00347535 -0.069279
RightToes  -35.9053 -0.186627 -0.290843
Spine  6.99504 -4.31498 -1.79478
Spine1  13.8971 -8.39652 -3.9278
HEad  33.9117 -16.4787 11.3439
LeftShoulder1  0 -2.42657e-020 -4.95415e-022
LeftArm  -11.9447 9.28646 -74.9944
LeftForeArm  -147.67 -37.9171 -7.40485
LeftHand  10.4963 -25.454 -44.6432
RightShoulder  0 2.42657e-020 1.07489e-018
RightArm  -47.1394 -32.9357 91.7365
RightForeArm  17.4347 71.3983 31.7772
RightHand  -0.527499 15.765 -3.44005
LeftUpLeg  -20.6451 -1.23349 -13.0888
LeftLeg  44.2451 -6.24732 -5.32781
LeftFoot  -15.599 0.306447 2.23697
LeftToes  -4.20981 1.18758e-006 1.19596e-007
